<svg xmlns="http://www.w3.org/2000/svg" width="1200" height="760" viewBox="0 0 1200 760">
  <defs>
    <style>
      .title { font-family: Inter, ui-sans-serif, system-ui, -apple-system, Segoe UI, Roboto, Helvetica, Arial; font-weight: 750; font-size: 34px; fill: #f0ebe5; letter-spacing: -0.02em; }
      .hint { font-family: Inter, ui-sans-serif, system-ui, -apple-system, Segoe UI, Roboto, Helvetica, Arial; font-weight: 500; font-size: 14px; fill: rgba(240, 235, 229, 0.70); }
      .section { font-family: Inter, ui-sans-serif, system-ui, -apple-system, Segoe UI, Roboto, Helvetica, Arial; font-weight: 650; font-size: 18px; fill: rgba(240, 235, 229, 0.88); }
      .swatch { rx: 14; ry: 14; }
      .swatch-dark { stroke: rgba(240, 235, 229, 0.08); stroke-width: 1; }
      .swatch-light { stroke: rgba(74, 63, 53, 0.12); stroke-width: 1; }
      .pill-dark { fill: rgba(13, 14, 18, 0.66); }
      .pill-light { fill: rgba(74, 63, 53, 0.10); }
      .pill-name-dark { font-family: Inter, ui-sans-serif, system-ui, -apple-system, Segoe UI, Roboto, Helvetica, Arial; font-weight: 600; font-size: 13px; fill: rgba(240, 235, 229, 0.92); }
      .pill-hex-dark { font-family: ui-monospace, SFMono-Regular, Menlo, Monaco, Consolas, "Liberation Mono", "Courier New", monospace; font-weight: 650; font-size: 12px; fill: rgba(240, 235, 229, 0.72); }
      .pill-name-light { font-family: Inter, ui-sans-serif, system-ui, -apple-system, Segoe UI, Roboto, Helvetica, Arial; font-weight: 600; font-size: 13px; fill: rgba(74, 63, 53, 0.92); }
      .pill-hex-light { font-family: ui-monospace, SFMono-Regular, Menlo, Monaco, Consolas, "Liberation Mono", "Courier New", monospace; font-weight: 650; font-size: 12px; fill: rgba(74, 63, 53, 0.70); }
    </style>
  </defs>

  <!-- Canvas background (Tsukimi dark) -->
  <rect x="0" y="0" width="1200" height="760" fill="#0d0e12" />

  <!-- Header -->
  <circle cx="60" cy="58" r="10" fill="#cdb195" opacity="0.95" />
  <text x="84" y="66" class="title">Tsukimi palette</text>
  <text x="84" y="92" class="hint">Reference swatches used across themes (hex)</text>

  <!-- Dark section label -->
  <text x="48" y="140" class="section">Dark</text>

  <!-- Dark swatches: 176x88, gap 16 -->
  <!-- Row 1 y=160 -->
  <g transform="translate(48 160)">
    <rect class="swatch swatch-dark" width="176" height="88" fill="#0d0e12"/>
    <rect x="10" y="58" width="156" height="22" rx="11" class="pill-dark"/>
    <text x="18" y="74" class="pill-name-dark">background</text>
    <text x="166" y="74" text-anchor="end" class="pill-hex-dark">#0d0e12</text>
  </g>
  <g transform="translate(240 160)">
    <rect class="swatch swatch-dark" width="176" height="88" fill="#0a0b0f"/>
    <rect x="10" y="58" width="156" height="22" rx="11" class="pill-dark"/>
    <text x="18" y="74" class="pill-name-dark">backgroundAlt</text>
    <text x="166" y="74" text-anchor="end" class="pill-hex-dark">#0a0b0f</text>
  </g>
  <g transform="translate(432 160)">
    <rect class="swatch swatch-dark" width="176" height="88" fill="#161a22"/>
    <rect x="10" y="58" width="156" height="22" rx="11" class="pill-dark"/>
    <text x="18" y="74" class="pill-name-dark">surface</text>
    <text x="166" y="74" text-anchor="end" class="pill-hex-dark">#161a22</text>
  </g>
  <g transform="translate(624 160)">
    <rect class="swatch swatch-dark" width="176" height="88" fill="#252A36"/>
    <rect x="10" y="58" width="156" height="22" rx="11" class="pill-dark"/>
    <text x="18" y="74" class="pill-name-dark">button</text>
    <text x="166" y="74" text-anchor="end" class="pill-hex-dark">#252A36</text>
  </g>
  <g transform="translate(816 160)">
    <rect class="swatch swatch-dark" width="176" height="88" fill="#3a3f4a"/>
    <rect x="10" y="58" width="156" height="22" rx="11" class="pill-dark"/>
    <text x="18" y="74" class="pill-name-dark">hover</text>
    <text x="166" y="74" text-anchor="end" class="pill-hex-dark">#3a3f4a</text>
  </g>
  <g transform="translate(1008 160)">
    <rect class="swatch swatch-dark" width="176" height="88" fill="#f0ebe5"/>
    <rect x="10" y="58" width="156" height="22" rx="11" class="pill-dark"/>
    <text x="18" y="74" class="pill-name-dark">text</text>
    <text x="166" y="74" text-anchor="end" class="pill-hex-dark">#f0ebe5</text>
  </g>

  <!-- Row 2 y=264 -->
  <g transform="translate(48 264)">
    <rect class="swatch swatch-dark" width="176" height="88" fill="#b8b3aa"/>
    <rect x="10" y="58" width="156" height="22" rx="11" class="pill-dark"/>
    <text x="18" y="74" class="pill-name-dark">muted</text>
    <text x="166" y="74" text-anchor="end" class="pill-hex-dark">#b8b3aa</text>
  </g>
  <g transform="translate(240 264)">
    <rect class="swatch swatch-dark" width="176" height="88" fill="#8a8a90"/>
    <rect x="10" y="58" width="156" height="22" rx="11" class="pill-dark"/>
    <text x="18" y="74" class="pill-name-dark">dim</text>
    <text x="166" y="74" text-anchor="end" class="pill-hex-dark">#8a8a90</text>
  </g>
  <g transform="translate(432 264)">
    <rect class="swatch swatch-dark" width="176" height="88" fill="#6a6f7a"/>
    <rect x="10" y="58" width="156" height="22" rx="11" class="pill-dark"/>
    <text x="18" y="74" class="pill-name-dark">veryDim</text>
    <text x="166" y="74" text-anchor="end" class="pill-hex-dark">#6a6f7a</text>
  </g>
  <g transform="translate(624 264)">
    <rect class="swatch swatch-dark" width="176" height="88" fill="#cdb195"/>
    <rect x="10" y="58" width="156" height="22" rx="11" class="pill-dark"/>
    <text x="18" y="74" class="pill-name-dark">accent</text>
    <text x="166" y="74" text-anchor="end" class="pill-hex-dark">#cdb195</text>
  </g>
  <g transform="translate(816 264)">
    <rect class="swatch swatch-dark" width="176" height="88" fill="#6a7a9a"/>
    <rect x="10" y="58" width="156" height="22" rx="11" class="pill-dark"/>
    <text x="18" y="74" class="pill-name-dark">blue</text>
    <text x="166" y="74" text-anchor="end" class="pill-hex-dark">#6a7a9a</text>
  </g>
  <g transform="translate(1008 264)">
    <rect class="swatch swatch-dark" width="176" height="88" fill="#8a9a80"/>
    <rect x="10" y="58" width="156" height="22" rx="11" class="pill-dark"/>
    <text x="18" y="74" class="pill-name-dark">green</text>
    <text x="166" y="74" text-anchor="end" class="pill-hex-dark">#8a9a80</text>
  </g>

  <!-- Row 3 y=368 -->
  <g transform="translate(48 368)">
    <rect class="swatch swatch-dark" width="176" height="88" fill="#aa7a6a"/>
    <rect x="10" y="58" width="156" height="22" rx="11" class="pill-dark"/>
    <text x="18" y="74" class="pill-name-dark">red</text>
    <text x="166" y="74" text-anchor="end" class="pill-hex-dark">#aa7a6a</text>
  </g>
  <g transform="translate(240 368)">
    <rect class="swatch swatch-dark" width="176" height="88" fill="#9a7a8a"/>
    <rect x="10" y="58" width="156" height="22" rx="11" class="pill-dark"/>
    <text x="18" y="74" class="pill-name-dark">magenta</text>
    <text x="166" y="74" text-anchor="end" class="pill-hex-dark">#9a7a8a</text>
  </g>
  <g transform="translate(432 368)">
    <rect class="swatch swatch-dark" width="176" height="88" fill="#7a8a9a"/>
    <rect x="10" y="58" width="156" height="22" rx="11" class="pill-dark"/>
    <text x="18" y="74" class="pill-name-dark">cyan</text>
    <text x="166" y="74" text-anchor="end" class="pill-hex-dark">#7a8a9a</text>
  </g>
  <g transform="translate(624 368)">
    <rect class="swatch swatch-dark" width="176" height="88" fill="#e5d5b8"/>
    <rect x="10" y="58" width="156" height="22" rx="11" class="pill-dark"/>
    <text x="18" y="74" class="pill-name-dark">accentBright</text>
    <text x="166" y="74" text-anchor="end" class="pill-hex-dark">#e5d5b8</text>
  </g>
  <g transform="translate(816 368)">
    <rect class="swatch swatch-dark" width="176" height="88" fill="#aac098"/>
    <rect x="10" y="58" width="156" height="22" rx="11" class="pill-dark"/>
    <text x="18" y="74" class="pill-name-dark">greenBright</text>
    <text x="166" y="74" text-anchor="end" class="pill-hex-dark">#aac098</text>
  </g>
  <g transform="translate(1008 368)">
    <rect class="swatch swatch-dark" width="176" height="88" fill="#8a9fba"/>
    <rect x="10" y="58" width="156" height="22" rx="11" class="pill-dark"/>
    <text x="18" y="74" class="pill-name-dark">blueBright</text>
    <text x="166" y="74" text-anchor="end" class="pill-hex-dark">#8a9fba</text>
  </g>

  <!-- Light section: only this area uses a light surround -->
  <rect x="32" y="490" width="1136" height="238" rx="22" fill="#f5f0e8" stroke="#e8dfd0" stroke-width="1"/>
  <text x="56" y="528" class="section" fill="#4a3f35">Light</text>
  <text x="56" y="550" class="hint" fill="rgba(74, 63, 53, 0.70)">Same palette, tuned for paper-like surfaces</text>

  <!-- Light swatches y=580 (inside panel) -->
  <g transform="translate(48 580)">
    <rect class="swatch swatch-light" width="176" height="88" fill="#f5f0e8"/>
    <rect x="10" y="58" width="156" height="22" rx="11" class="pill-light"/>
    <text x="18" y="74" class="pill-name-light">background</text>
    <text x="166" y="74" text-anchor="end" class="pill-hex-light">#f5f0e8</text>
  </g>
  <g transform="translate(240 580)">
    <rect class="swatch swatch-light" width="176" height="88" fill="#faf7f2"/>
    <rect x="10" y="58" width="156" height="22" rx="11" class="pill-light"/>
    <text x="18" y="74" class="pill-name-light">surface</text>
    <text x="166" y="74" text-anchor="end" class="pill-hex-light">#faf7f2</text>
  </g>
  <g transform="translate(432 580)">
    <rect class="swatch swatch-light" width="176" height="88" fill="#e8dfd0"/>
    <rect x="10" y="58" width="156" height="22" rx="11" class="pill-light"/>
    <text x="18" y="74" class="pill-name-light">border</text>
    <text x="166" y="74" text-anchor="end" class="pill-hex-light">#e8dfd0</text>
  </g>
  <g transform="translate(624 580)">
    <rect class="swatch swatch-light" width="176" height="88" fill="#4a3f35"/>
    <rect x="10" y="58" width="156" height="22" rx="11" fill="rgba(245, 240, 232, 0.60)"/>
    <text x="18" y="74" class="pill-name-light">text</text>
    <text x="166" y="74" text-anchor="end" class="pill-hex-light">#4a3f35</text>
  </g>
  <g transform="translate(816 580)">
    <rect class="swatch swatch-light" width="176" height="88" fill="#6b5d4f"/>
    <rect x="10" y="58" width="156" height="22" rx="11" fill="rgba(245, 240, 232, 0.58)"/>
    <text x="18" y="74" class="pill-name-light">muted</text>
    <text x="166" y="74" text-anchor="end" class="pill-hex-light">#6b5d4f</text>
  </g>
  <g transform="translate(1008 580)">
    <rect class="swatch swatch-light" width="176" height="88" fill="#d4a574"/>
    <rect x="10" y="58" width="156" height="22" rx="11" class="pill-light"/>
    <text x="18" y="74" class="pill-name-light">accent</text>
    <text x="166" y="74" text-anchor="end" class="pill-hex-light">#d4a574</text>
  </g>
</svg>
