<svg xmlns="http://www.w3.org/2000/svg" width="1200" height="680" viewBox="0 0 1200 680">
  <defs>
    <style>
      .title {
        font-family: Inter, -apple-system, BlinkMacSystemFont, 'Segoe UI', Roboto, sans-serif;
        font-weight: 700;
        font-size: 36px;
        fill: #f0ebe5;
        letter-spacing: -0.03em;
      }
      .subtitle {
        font-family: Inter, -apple-system, BlinkMacSystemFont, 'Segoe UI', Roboto, sans-serif;
        font-weight: 500;
        font-size: 15px;
        fill: #b8b3aa;
        letter-spacing: -0.01em;
      }
      .section-title {
        font-family: Inter, -apple-system, BlinkMacSystemFont, 'Segoe UI', Roboto, sans-serif;
        font-weight: 650;
        font-size: 16px;
        fill: #f0ebe5;
        letter-spacing: -0.01em;
        text-transform: uppercase;
        opacity: 0.6;
      }

      .swatch-stroke {
        stroke: rgba(255, 255, 255, 0.06);
        stroke-width: 1;
      }

      .label-bg {
        fill: rgba(13, 14, 18, 0.7);
      }
      .label-name {
        font-family: Inter, -apple-system, BlinkMacSystemFont, 'Segoe UI', Roboto, sans-serif;
        font-weight: 600;
        font-size: 12.5px;
        fill: rgba(240, 235, 229, 0.95);
      }
      .label-hex {
        font-family: 'SF Mono', Monaco, 'Cascadia Code', 'Roboto Mono', Consolas, monospace;
        font-weight: 600;
        font-size: 11.5px;
        fill: rgba(240, 235, 229, 0.65);
        letter-spacing: 0.02em;
      }

      .light-section-title {
        font-family: Inter, -apple-system, BlinkMacSystemFont, 'Segoe UI', Roboto, sans-serif;
        font-weight: 650;
        font-size: 16px;
        fill: #4a3f35;
        letter-spacing: -0.01em;
        text-transform: uppercase;
        opacity: 0.6;
      }

      .light-label-bg {
        fill: rgba(74, 63, 53, 0.08);
      }
      .light-label-name {
        font-family: Inter, -apple-system, BlinkMacSystemFont, 'Segoe UI', Roboto, sans-serif;
        font-weight: 600;
        font-size: 12.5px;
        fill: rgba(74, 63, 53, 0.95);
      }
      .light-label-hex {
        font-family: 'SF Mono', Monaco, 'Cascadia Code', 'Roboto Mono', Consolas, monospace;
        font-weight: 600;
        font-size: 11.5px;
        fill: rgba(74, 63, 53, 0.65);
        letter-spacing: 0.02em;
      }
      .light-swatch-stroke {
        stroke: rgba(74, 63, 53, 0.12);
        stroke-width: 1;
      }
    </style>
  </defs>

  <!-- Background -->
  <rect width="1200" height="680" fill="#0d0e12"/>

  <!-- Header -->
  <circle cx="48" cy="52" r="8" fill="#cdb195" opacity="0.9"/>
  <text x="68" y="60" class="title">tsukimi</text>

  <!-- Layout constants (manual):
       swatch w=176 h=84
       gap x=12 (step=188), gap y=12 (step=96)
       swatch radius = 14
       label pill: x=10, y=56, w=156, h=22, r=11
       label text y centered at 67 with dominant-baseline="middle"
  -->

  <!-- Dark Palette Section -->
  <text x="48" y="130" class="section-title">Dark Theme</text>

  <!-- Row 1 (y=148) -->
  <g transform="translate(48, 148)">
    <rect width="176" height="84" rx="14" ry="14" class="swatch-stroke" fill="#0d0e12"/>
    <rect x="10" y="56" width="156" height="22" rx="11" ry="11" class="label-bg"/>
    <text x="18" y="67" dominant-baseline="middle" class="label-name">background</text>
    <text x="158" y="67" dominant-baseline="middle" text-anchor="end" class="label-hex">#0d0e12</text>
  </g>

  <g transform="translate(236, 148)">
    <rect width="176" height="84" rx="14" ry="14" class="swatch-stroke" fill="#0a0b0f"/>
    <rect x="10" y="56" width="156" height="22" rx="11" ry="11" class="label-bg"/>
    <text x="18" y="67" dominant-baseline="middle" class="label-name">backgroundAlt</text>
    <text x="158" y="67" dominant-baseline="middle" text-anchor="end" class="label-hex">#0a0b0f</text>
  </g>

  <g transform="translate(424, 148)">
    <rect width="176" height="84" rx="14" ry="14" class="swatch-stroke" fill="#161a22"/>
    <rect x="10" y="56" width="156" height="22" rx="11" ry="11" class="label-bg"/>
    <text x="18" y="67" dominant-baseline="middle" class="label-name">surface</text>
    <text x="158" y="67" dominant-baseline="middle" text-anchor="end" class="label-hex">#161a22</text>
  </g>

  <g transform="translate(612, 148)">
    <rect width="176" height="84" rx="14" ry="14" class="swatch-stroke" fill="#252A36"/>
    <rect x="10" y="56" width="156" height="22" rx="11" ry="11" class="label-bg"/>
    <text x="18" y="67" dominant-baseline="middle" class="label-name">button</text>
    <text x="158" y="67" dominant-baseline="middle" text-anchor="end" class="label-hex">#252A36</text>
  </g>

  <g transform="translate(800, 148)">
    <rect width="176" height="84" rx="14" ry="14" class="swatch-stroke" fill="#3a3f4a"/>
    <rect x="10" y="56" width="156" height="22" rx="11" ry="11" class="label-bg"/>
    <text x="18" y="67" dominant-baseline="middle" class="label-name">hover</text>
    <text x="158" y="67" dominant-baseline="middle" text-anchor="end" class="label-hex">#3a3f4a</text>
  </g>

  <g transform="translate(988, 148)">
    <rect width="176" height="84" rx="14" ry="14" class="swatch-stroke" fill="#f0ebe5"/>
    <rect x="10" y="56" width="156" height="22" rx="11" ry="11" class="label-bg"/>
    <text x="18" y="67" dominant-baseline="middle" class="label-name">text</text>
    <text x="158" y="67" dominant-baseline="middle" text-anchor="end" class="label-hex">#f0ebe5</text>
  </g>

  <!-- Row 2 (y=244) -->
  <g transform="translate(48, 244)">
    <rect width="176" height="84" rx="14" ry="14" class="swatch-stroke" fill="#b8b3aa"/>
    <rect x="10" y="56" width="156" height="22" rx="11" ry="11" class="label-bg"/>
    <text x="18" y="67" dominant-baseline="middle" class="label-name">muted</text>
    <text x="158" y="67" dominant-baseline="middle" text-anchor="end" class="label-hex">#b8b3aa</text>
  </g>

  <g transform="translate(236, 244)">
    <rect width="176" height="84" rx="14" ry="14" class="swatch-stroke" fill="#8a8a90"/>
    <rect x="10" y="56" width="156" height="22" rx="11" ry="11" class="label-bg"/>
    <text x="18" y="67" dominant-baseline="middle" class="label-name">dim</text>
    <text x="158" y="67" dominant-baseline="middle" text-anchor="end" class="label-hex">#8a8a90</text>
  </g>

  <g transform="translate(424, 244)">
    <rect width="176" height="84" rx="14" ry="14" class="swatch-stroke" fill="#6a6f7a"/>
    <rect x="10" y="56" width="156" height="22" rx="11" ry="11" class="label-bg"/>
    <text x="18" y="67" dominant-baseline="middle" class="label-name">veryDim</text>
    <text x="158" y="67" dominant-baseline="middle" text-anchor="end" class="label-hex">#6a6f7a</text>
  </g>

  <g transform="translate(612, 244)">
    <rect width="176" height="84" rx="14" ry="14" class="swatch-stroke" fill="#cdb195"/>
    <rect x="10" y="56" width="156" height="22" rx="11" ry="11" class="label-bg"/>
    <text x="18" y="67" dominant-baseline="middle" class="label-name">accent</text>
    <text x="158" y="67" dominant-baseline="middle" text-anchor="end" class="label-hex">#cdb195</text>
  </g>

  <g transform="translate(800, 244)">
    <rect width="176" height="84" rx="14" ry="14" class="swatch-stroke" fill="#6a7a9a"/>
    <rect x="10" y="56" width="156" height="22" rx="11" ry="11" class="label-bg"/>
    <text x="18" y="67" dominant-baseline="middle" class="label-name">blue</text>
    <text x="158" y="67" dominant-baseline="middle" text-anchor="end" class="label-hex">#6a7a9a</text>
  </g>

  <g transform="translate(988, 244)">
    <rect width="176" height="84" rx="14" ry="14" class="swatch-stroke" fill="#8a9a80"/>
    <rect x="10" y="56" width="156" height="22" rx="11" ry="11" class="label-bg"/>
    <text x="18" y="67" dominant-baseline="middle" class="label-name">green</text>
    <text x="158" y="67" dominant-baseline="middle" text-anchor="end" class="label-hex">#8a9a80</text>
  </g>

  <!-- Row 3 (y=340) -->
  <g transform="translate(48, 340)">
    <rect width="176" height="84" rx="14" ry="14" class="swatch-stroke" fill="#aa7a6a"/>
    <rect x="10" y="56" width="156" height="22" rx="11" ry="11" class="label-bg"/>
    <text x="18" y="67" dominant-baseline="middle" class="label-name">red</text>
    <text x="158" y="67" dominant-baseline="middle" text-anchor="end" class="label-hex">#aa7a6a</text>
  </g>

  <g transform="translate(236, 340)">
    <rect width="176" height="84" rx="14" ry="14" class="swatch-stroke" fill="#9a7a8a"/>
    <rect x="10" y="56" width="156" height="22" rx="11" ry="11" class="label-bg"/>
    <text x="18" y="67" dominant-baseline="middle" class="label-name">magenta</text>
    <text x="158" y="67" dominant-baseline="middle" text-anchor="end" class="label-hex">#9a7a8a</text>
  </g>

  <g transform="translate(424, 340)">
    <rect width="176" height="84" rx="14" ry="14" class="swatch-stroke" fill="#7a8a9a"/>
    <rect x="10" y="56" width="156" height="22" rx="11" ry="11" class="label-bg"/>
    <text x="18" y="67" dominant-baseline="middle" class="label-name">cyan</text>
    <text x="158" y="67" dominant-baseline="middle" text-anchor="end" class="label-hex">#7a8a9a</text>
  </g>

  <g transform="translate(612, 340)">
    <rect width="176" height="84" rx="14" ry="14" class="swatch-stroke" fill="#e5d5b8"/>
    <rect x="10" y="56" width="156" height="22" rx="11" ry="11" class="label-bg"/>
    <text x="18" y="67" dominant-baseline="middle" class="label-name">accentBright</text>
    <text x="158" y="67" dominant-baseline="middle" text-anchor="end" class="label-hex">#e5d5b8</text>
  </g>

  <g transform="translate(800, 340)">
    <rect width="176" height="84" rx="14" ry="14" class="swatch-stroke" fill="#aac098"/>
    <rect x="10" y="56" width="156" height="22" rx="11" ry="11" class="label-bg"/>
    <text x="18" y="67" dominant-baseline="middle" class="label-name">greenBright</text>
    <text x="158" y="67" dominant-baseline="middle" text-anchor="end" class="label-hex">#aac098</text>
  </g>

  <g transform="translate(988, 340)">
    <rect width="176" height="84" rx="14" ry="14" class="swatch-stroke" fill="#8a9fba"/>
    <rect x="10" y="56" width="156" height="22" rx="11" ry="11" class="label-bg"/>
    <text x="18" y="67" dominant-baseline="middle" class="label-name">blueBright</text>
    <text x="158" y="67" dominant-baseline="middle" text-anchor="end" class="label-hex">#8a9fba</text>
  </g>

  <!-- Light Theme Section (moved up slightly to keep spacing consistent after row gap changes) -->
  <rect x="38" y="456" width="1136" height="180" rx="1" fill="#f5f0e8" stroke="#e8dfd0" stroke-width="1"/>

  <text x="68" y="492" class="light-section-title">Light Theme</text>

  <!-- Light row (6 columns) — starts at x=58 to keep 10px padding inside the container -->
  <g transform="translate(48, 516)">
    <rect width="176" height="84" rx="14" ry="14" class="light-swatch-stroke" fill="#f5f0e8"/>
    <rect x="10" y="56" width="156" height="22" rx="11" ry="11" class="light-label-bg"/>
    <text x="18" y="67" dominant-baseline="middle" class="light-label-name">background</text>
    <text x="158" y="67" dominant-baseline="middle" text-anchor="end" class="light-label-hex">#f5f0e8</text>
  </g>

  <g transform="translate(236, 516)">
    <rect width="176" height="84" rx="14" ry="14" class="light-swatch-stroke" fill="#faf7f2"/>
    <rect x="10" y="56" width="156" height="22" rx="11" ry="11" class="light-label-bg"/>
    <text x="18" y="67" dominant-baseline="middle" class="light-label-name">surface</text>
    <text x="158" y="67" dominant-baseline="middle" text-anchor="end" class="light-label-hex">#faf7f2</text>
  </g>

  <g transform="translate(424, 516)">
    <rect width="176" height="84" rx="14" ry="14" class="light-swatch-stroke" fill="#e8dfd0"/>
    <rect x="10" y="56" width="156" height="22" rx="11" ry="11" class="light-label-bg"/>
    <text x="18" y="67" dominant-baseline="middle" class="light-label-name">border</text>
    <text x="158" y="67" dominant-baseline="middle" text-anchor="end" class="light-label-hex">#e8dfd0</text>
  </g>

  <g transform="translate(612, 516)">
    <rect width="176" height="84" rx="14" ry="14" class="light-swatch-stroke" fill="#4a3f35"/>
    <rect x="10" y="56" width="156" height="22" rx="11" ry="11" class="label-bg"/>
    <text x="18" y="67" dominant-baseline="middle" class="label-name">text</text>
    <text x="158" y="67" dominant-baseline="middle" text-anchor="end" class="label-hex">#4a3f35</text>
  </g>

  <g transform="translate(800, 516)">
    <rect width="176" height="84" rx="14" ry="14" class="light-swatch-stroke" fill="#6b5d4f"/>
    <rect x="10" y="56" width="156" height="22" rx="11" ry="11" class="label-bg"/>
    <text x="18" y="67" dominant-baseline="middle" class="label-name">muted</text>
    <text x="158" y="67" dominant-baseline="middle" text-anchor="end" class="label-hex">#6b5d4f</text>
  </g>

  <g transform="translate(988, 516)">
    <rect width="176" height="84" rx="14" ry="14" class="light-swatch-stroke" fill="#d4a574"/>
    <rect x="10" y="56" width="156" height="22" rx="11" ry="11" class="light-label-bg"/>
    <text x="18" y="67" dominant-baseline="middle" class="light-label-name">accent</text>
    <text x="158" y="67" dominant-baseline="middle" text-anchor="end" class="light-label-hex">#d4a574</text>
  </g>
</svg>
